# File created by Blade
# Date/Time:  Thu Sep 25 18:48:06 2014
# Frame Rate: 120.000 fps
#------------------------------------------------------
:FULLY-SPECIFIED
:DEGREES
1406
root 1.378980 33.009034 2.144205 9.505658 2.760929 0.439560
Spine -14.379657 9.265168 -0.974124
Head 22.441295 -10.245418 -0.363216
LeftShoulder -17.333123 0.999202 33.520913
LeftArm 160.386768 -29.895479 -109.820368
LeftForeArm -26.610835 -0.000000 155.082174
LeftHand -5.404835 -0.000000 -0.274666
LeftHandThumb1 -26.253704 0.000000 33.147579
RightShoulder -8.841493 5.794147 -11.117771
RightArm -134.263688 -71.523212 236.680815
RightForeArm -26.702474 0.000000 102.801497
RightHand 60.875797 -0.000000 10.847190
RightHandThumb1 -24.326973 -0.000000 -32.862282
LeftUpLeg -2.995996 6.178839 2.659115
LeftLeg -0.879804 -0.000000 0.000000
LeftFoot -8.731115 4.330471 -13.109460
LeftToeBase 11.097409 -0.000000 -0.000000
RightUpLeg -2.462088 -13.516720 -5.924971
RightLeg 0.769425 -0.000000 -0.000000
RightFoot -5.475295 -3.052167 6.896288
RightToeBase 0.923338 -0.000000 -0.000000
1407
root 1.379986 33.009180 2.142524 9.499076 2.774727 0.440869
Spine -14.376033 9.278197 -0.961492
Head 22.496977 -10.320752 -0.441265
LeftShoulder -17.336676 1.222356 33.439741
LeftArm 160.596631 -29.829335 -109.819374
LeftForeArm -26.618471 -0.000000 155.059757
LeftHand -5.450874 0.000000 -0.278760
LeftHandThumb1 -26.253704 0.000000 33.147579
RightShoulder -8.870422 5.777427 -11.107461
RightArm -134.361754 -71.518597 236.776326
RightForeArm -26.740823 -0.000000 102.815863
RightHand 60.836601 -0.000000 10.731851
RightHandThumb1 -24.326973 -0.000000 -32.862282
LeftUpLeg -2.999092 6.175977 2.657340
LeftLeg -0.870583 -0.000000 0.000000
LeftFoot -8.718460 4.317921 -13.093429
LeftToeBase 11.060156 -0.000000 -0.000000
RightUpLeg -2.456215 -13.551809 -5.925644
RightLeg 0.767694 -0.000000 -0.000000
RightFoot -5.472772 -3.026930 6.909493
RightToeBase 0.953304 -0.000000 -0.000000
1408
root 1.381490 33.009529 2.139960 9.493247 2.779378 0.439512
Spine -14.375209 9.270775 -0.925432
Head 22.530043 -10.330633 -0.527395
LeftShoulder -17.350949 1.470180 33.327128
LeftArm 160.817365 -29.758067 -109.816596
LeftForeArm -26.631634 -0.000000 155.036591
LeftHand -5.429380 -0.000000 -0.369234
LeftHandThumb1 -26.253704 0.000000 33.147579
RightShoulder -8.848903 5.790065 -11.099831
RightArm -134.323818 -71.511012 236.741500
RightForeArm -26.764407 -0.000000 102.816959
RightHand 60.804720 -0.000000 10.721776
RightHandThumb1 -24.326973 -0.000000 -32.862282
LeftUpLeg -3.002103 6.176024 2.657343
LeftLeg -0.873748 -0.000000 0.000000
LeftFoot -8.669626 4.262485 -13.223474
LeftToeBase 10.907052 -0.000000 -0.000000
RightUpLeg -2.456286 -13.568037 -5.924592
RightLeg 0.770260 -0.000000 -0.000000
RightFoot -5.440137 -3.034913 6.878910
RightToeBase 0.804742 -0.000000 -0.000000
1409
root 1.384221 33.009762 2.137193 9.497361 2.786601 0.451401
Spine -14.380414 9.271107 -0.917672
Head 22.519149 -10.340170 -0.537983
LeftShoulder -17.348940 1.667519 33.241457
LeftArm 160.993727 -29.728903 -109.796420
LeftForeArm -26.658281 -0.000000 155.005621
LeftHand -5.372636 -0.000000 -0.387218
LeftHandThumb1 -26.253704 0.000000 33.147579
RightShoulder -8.858332 5.771871 -11.086289
RightArm -134.451938 -71.510962 236.865871
RightForeArm -26.758383 -0.000000 102.828673
RightHand 60.765743 -0.000000 10.765471
RightHandThumb1 -24.326973 -0.000000 -32.862282
LeftUpLeg -3.017122 6.141985 2.638536
LeftLeg -0.851021 -0.000000 0.000000
LeftFoot -8.742082 4.344820 -13.097587
LeftToeBase 11.120820 -0.000000 -0.000000
RightUpLeg -2.465824 -13.587149 -5.939155
RightLeg 0.779531 -0.000000 -0.000000
RightFoot -5.465648 -3.012272 6.904061
RightToeBase 0.904083 -0.000000 -0.000000
1410
root 1.385954 33.009176 2.135146 9.497029 2.796018 0.452870
Spine -14.380558 9.283582 -0.897334
Head 22.476685 -10.321496 -0.541411
LeftShoulder -17.330051 1.820932 33.168652
LeftArm 161.124632 -29.703635 -109.766821
LeftForeArm -26.699773 -0.000000 154.981466
LeftHand -5.350039 0.000000 -0.445405
LeftHandThumb1 -26.253704 0.000000 33.147579
RightShoulder -8.865312 5.769838 -11.084249
RightArm -134.503958 -71.490883 236.937648
RightForeArm -26.874836 -0.000000 102.833074
RightHand 60.743945 0.000000 10.386983
RightHandThumb1 -24.326973 -0.000000 -32.862282
LeftUpLeg -3.023287 6.132459 2.631826
LeftLeg -0.849604 -0.000000 0.000000
LeftFoot -8.763723 4.356307 -13.108171
LeftToeBase 11.238362 -0.000000 -0.000000
RightUpLeg -2.472296 -13.609720 -5.938493
RightLeg 0.787299 -0.000000 -0.000000
RightFoot -5.453637 -3.025074 6.816899
RightToeBase 0.814256 -0.000000 -0.000000
1411
root 1.387281 33.008861 2.132287 9.507876 2.803527 0.456744
Spine -14.388204 9.274589 -0.880564
Head 22.396912 -10.282695 -0.477379
LeftShoulder -17.333482 1.988354 33.103594
LeftArm 161.259097 -29.655971 -109.751221
LeftForeArm -26.695063 -0.000000 154.962829
LeftHand -5.332099 0.000000 -0.511426
LeftHandThumb1 -26.253704 0.000000 33.147579
RightShoulder -8.873473 5.749775 -11.052201
RightArm -134.758638 -71.465947 237.163973
RightForeArm -26.647618 -0.000000 102.855968
RightHand 60.670949 0.000000 10.802340
RightHandThumb1 -24.326973 -0.000000 -32.862282
LeftUpLeg -3.041908 6.126134 2.627534
LeftLeg -0.844591 -0.000000 0.000000
LeftFoot -8.754765 4.345501 -13.084450
LeftToeBase 11.154457 -0.000000 -0.000000
RightUpLeg -2.488116 -13.634660 -5.940581
RightLeg 0.788050 -0.000000 -0.000000
RightFoot -5.442361 -3.005396 6.832539
RightToeBase 0.788316 -0.000000 -0.000000
1412
root 1.388554 33.008028 2.129253 9.520329 2.805909 0.460952
Spine -14.398118 9.273456 -0.868530
Head 22.281610 -10.226863 -0.403789
LeftShoulder -17.320859 2.142039 33.057123
LeftArm 161.386712 -29.601504 -109.756307
LeftForeArm -26.661369 0.000000 154.954065
LeftHand -5.316424 -0.000000 -0.536329
LeftHandThumb1 -26.253704 0.000000 33.147579
RightShoulder -8.873279 5.734309 -11.034175
RightArm -134.799340 -71.480210 237.199193
RightForeArm -26.647351 -0.000000 102.866978
RightHand 60.629578 0.000000 10.922057
RightHandThumb1 -24.326973 -0.000000 -32.862282
LeftUpLeg -3.059023 6.108734 2.617644
LeftLeg -0.846606 -0.000000 0.000000
LeftFoot -8.760561 4.371154 -13.104948
LeftToeBase 11.150831 -0.000000 -0.000000
RightUpLeg -2.510959 -13.637391 -5.943512
RightLeg 0.802629 -0.000000 -0.000000
RightFoot -5.459682 -3.007753 6.826135
RightToeBase 0.807705 -0.000000 -0.000000
1413
root 1.391993 33.007116 2.128834 9.522360 2.813033 0.476313
Spine -14.400305 9.264891 -0.856763
Head 22.160193 -10.164639 -0.357858
LeftShoulder -17.299211 2.274648 33.007367
LeftArm 161.493067 -29.559839 -109.756514
LeftForeArm -26.614843 -0.000000 154.949938
LeftHand -5.341411 -0.000000 -0.523220
LeftHandThumb1 -26.253704 0.000000 33.147579
RightShoulder -8.850585 5.736411 -11.060867
RightArm -134.597174 -71.486552 237.067068
RightForeArm -27.077166 -0.000000 102.852293
RightHand 60.613660 0.000000 9.880666
RightHandThumb1 -24.326973 -0.000000 -32.862282
LeftUpLeg -3.060344 6.104750 2.599158
LeftLeg -0.850747 -0.000000 0.000000
LeftFoot -8.757672 4.357342 -13.066505
LeftToeBase 11.179665 -0.000000 -0.000000
RightUpLeg -2.508020 -13.654351 -5.966040
RightLeg 0.801656 -0.000000 -0.000000
RightFoot -5.496759 -2.976570 6.866546
RightToeBase 0.919436 -0.000000 -0.000000
1414
root 1.391882 33.006929 2.123332 9.549404 2.822245 0.475301
Spine -14.414152 9.255932 -0.839578
Head 22.017265 -10.134482 -0.318044
LeftShoulder -17.284576 2.380999 32.965363
LeftArm 161.581672 -29.522078 -109.753166
LeftForeArm -26.549166 -0.000000 154.942048
LeftHand -5.339495 -0.000000 -0.586453
LeftHandThumb1 -26.253704 0.000000 33.147579
RightShoulder -8.875246 5.694628 -11.031087
RightArm -134.859379 -71.490449 237.312569
RightForeArm -27.140448 -0.000000 102.869934
RightHand 60.537365 0.000000 9.561072
RightHandThumb1 -24.326973 -0.000000 -32.862282
LeftUpLeg -3.106251 6.100268 2.597040
LeftLeg -0.833566 -0.000000 0.000000
LeftFoot -8.747949 4.342888 -13.069411
LeftToeBase 11.081660 -0.000000 -0.000000
RightUpLeg -2.542500 -13.654155 -5.955989
RightLeg 0.798178 -0.000000 -0.000000
RightFoot -5.494051 -2.988941 6.878824
RightToeBase 0.881740 -0.000000 -0.000000
